<?xml version="1.0" encoding="iso-8859-1"?>
<!-- Generator: Adobe Illustrator 16.0.0, SVG Export Plug-In . SVG Version: 6.00 Build 0)  -->
<!DOCTYPE svg PUBLIC "-//W3C//DTD SVG 1.1//EN" "http://www.w3.org/Graphics/SVG/1.1/DTD/svg11.dtd">
<svg version="1.1" id="Capa_1" xmlns="http://www.w3.org/2000/svg" xmlns:xlink="http://www.w3.org/1999/xlink" x="0px" y="0px"
	 width="176.023px" height="176.023px" viewBox="0 0 176.023 176.023" style="enable-background:new 0 0 176.023 176.023;"
	 xml:space="preserve">
<g>
	<path d="M176.023,88.013c0-48.529-39.481-88.011-88.011-88.011S0,39.482,0,88.013c0,0.707,0.011,1.426,0.031,2.14v0.002v0.006
		v0.015v0.007c0.557,23.047,9.953,44.625,26.458,60.764c16.539,16.17,38.388,25.076,61.523,25.076
		c22.012,0,43.08-8.168,59.324-23.001c16.133-14.731,26.172-34.772,28.268-56.429l0.002-0.007v-0.003
		C175.704,95.562,176.022,91.052,176.023,88.013z M88.012,7.778c44.242,0,80.235,35.993,80.235,80.235
		c0,0.24-0.005,0.479-0.007,0.722c-0.007,0.407-0.02,0.938-0.039,1.549c-6.001-2.809-16.718-6.917-30.889-6.917
		c-0.979,0-8.84,0.261-11.768,0.642c-2.008-18.938-18.072-33.742-37.534-33.742c-18.781,0-34.398,13.789-37.269,31.775
		c-5.957-1.631-12.069-2.456-18.231-2.456c-8.353,0-16.762,1.563-24.64,4.55C9.9,41.688,45.069,7.778,88.012,7.778z M117.973,88.752
		c-0.392,16.143-13.775,29.232-29.96,29.232c-16.526,0-29.972-13.445-29.972-29.971c0-0.338,0.015-0.672,0.025-1.007l0.007-0.213
		c0,0-0.001-0.029-0.001-0.043c0.664-15.942,13.836-28.708,29.938-28.708c16.527,0,29.972,13.445,29.972,29.97
		c0,0.071-0.005,0.142-0.007,0.213l-0.006,0.214C117.967,88.545,117.969,88.648,117.973,88.752z M88.012,168.246
		c-42.344,0-77.756-33.748-80.107-75.737c7.766-3.374,16.22-5.148,24.605-5.148c6.028,0,12.005,0.89,17.806,2.649
		c1.041,19.889,17.551,35.75,37.696,35.75c9.98,0,19.39-3.857,26.496-10.862c6.321-6.229,10.18-14.315,11.058-23.044
		c2.944-0.432,8.976-0.65,9.03-0.654c0.902-0.037,1.816-0.057,2.717-0.057c14.98,0,25.732,5.191,30.234,7.48
		C162.315,138.511,128.604,168.246,88.012,168.246z"/>
</g>
<g>
</g>
<g>
</g>
<g>
</g>
<g>
</g>
<g>
</g>
<g>
</g>
<g>
</g>
<g>
</g>
<g>
</g>
<g>
</g>
<g>
</g>
<g>
</g>
<g>
</g>
<g>
</g>
<g>
</g>
</svg>
